<?xml version="1.0" encoding="UTF-8"?>
<svg width="17px" height="36px" viewBox="0 0 17 36" version="1.1" xmlns="http://www.w3.org/2000/svg" xmlns:xlink="http://www.w3.org/1999/xlink">
    <g id="Page-1" stroke="none" stroke-width="1" fill="none" fill-rule="evenodd">
        <g id="About_Layer" transform="translate(-359.000000, -5123.000000)" fill="#582685" fill-rule="nonzero">
            <g id="info-sign-(2)" transform="translate(359.000000, 5123.000000)">
                <path d="M12.9946522,0 C15.4692609,0 16.7061957,1.64412 16.7061957,3.52404 C16.7061957,5.87196 14.5575435,8.04384 11.7573478,8.04384 C9.41282609,8.04384 8.04506522,6.69312 8.1101087,4.46292 C8.1101087,2.58336 9.73804348,0 12.9946522,0 Z M5.37458696,36 C3.42069565,36 1.9878913,34.82568 3.35565217,29.6586 L5.59891304,20.49408 C5.98954348,19.02636 6.05347826,18.43956 5.59891304,18.43956 C5.01204348,18.43956 2.47571739,19.45332 0.975652174,20.45196 L0,18.86616 C4.75371739,14.9328 10.222913,12.62592 12.5666957,12.62592 C14.5198478,12.62592 14.8461739,14.91588 13.869413,18.4392 L11.3013043,28.0728 C10.8452609,29.77524 11.0415,30.36204 11.4960652,30.36204 C12.0821957,30.36204 14.0043043,29.65536 15.892413,28.18728 L17,29.65572 C12.376,34.236 7.32847826,36 5.37458696,36 Z" id="Shape"></path>
            </g>
        </g>
    </g>
</svg>