<?xml version="1.0" encoding="UTF-8"?>
<svg width="32px" height="16px" viewBox="0 0 32 16" version="1.1" xmlns="http://www.w3.org/2000/svg" xmlns:xlink="http://www.w3.org/1999/xlink">
    <g id="Page-1" stroke="none" stroke-width="1" fill="none" fill-rule="evenodd">
        <g id="Markets_Layer" transform="translate(-1054.000000, -3126.000000)" fill="#FFFFFF" fill-rule="nonzero">
            <g id="Group-Copy-2" transform="translate(1054.000000, 3126.000000)">
                <g id="right-arrow-(10)" transform="translate(23.000000, 0.000000)">
                    <path d="M1.01196581,15.7675214 C0.902564103,15.8769231 0.765811966,15.9316239 0.615384615,15.9316239 C0.464957265,15.9316239 0.328205128,15.8769231 0.218803419,15.7675214 C0,15.5487179 0,15.1931624 0.218803419,14.974359 L7.19316239,8 L0.218803419,1.02564103 C-9.71445147e-16,0.806837607 -9.71445147e-16,0.451282051 0.218803419,0.232478632 C0.437606838,0.0136752137 0.793162393,0.0136752137 1.01196581,0.232478632 L8.38290598,7.6034188 C8.6017094,7.82222222 8.6017094,8.17777778 8.38290598,8.3965812 L1.01196581,15.7675214 L1.01196581,15.7675214 Z" id="Path"></path>
                </g>
                <g id="right-arrow-(10)-copy" transform="translate(4.307692, 8.000000) scale(-1, 1) translate(-4.307692, -8.000000) ">
                    <path d="M1.01196581,15.7675214 C0.902564103,15.8769231 0.765811966,15.9316239 0.615384615,15.9316239 C0.464957265,15.9316239 0.328205128,15.8769231 0.218803419,15.7675214 C0,15.5487179 0,15.1931624 0.218803419,14.974359 L7.19316239,8 L0.218803419,1.02564103 C-9.71445147e-16,0.806837607 -9.71445147e-16,0.451282051 0.218803419,0.232478632 C0.437606838,0.0136752137 0.793162393,0.0136752137 1.01196581,0.232478632 L8.38290598,7.6034188 C8.6017094,7.82222222 8.6017094,8.17777778 8.38290598,8.3965812 L1.01196581,15.7675214 L1.01196581,15.7675214 Z" id="Path"></path>
                </g>
            </g>
        </g>
    </g>
</svg>